<svg xmlns="http://www.w3.org/2000/svg" width="49.123" height="49.124" viewBox="0 0 49.123 49.124">
  <g id="noun-vitruvian-man-66805" transform="translate(1339.469 180.696)">
    <path id="Контур_417" data-name="Контур 417" d="M139.947,45.13A24.414,24.414,0,0,0,136.321,32.3v-4.25h-3.306a24.506,24.506,0,0,0-35.26,0H94.683v3.887a24.473,24.473,0,0,0,0,26.38V69.691h41.639V57.956a24.416,24.416,0,0,0,3.625-12.828Zm-1.3,0a23.115,23.115,0,0,1-2.322,10.123V35.007a23.121,23.121,0,0,1,2.321,10.123Zm-9.529,18.758c-.409-.562-1.234-.488-1.663-.446a4.329,4.329,0,0,0-.645.142c-.184.051-.493.136-.535.141a2.355,2.355,0,0,1-.354-.411c-.065-.087-.128-.17-.188-.243a2.593,2.593,0,0,1-.479-1.108c-.06-.265-.105-.511-.148-.747a5.771,5.771,0,0,0-.811-2.321c-.16-.247-.333-.489-.507-.732a5.6,5.6,0,0,1-.977-1.747L122.6,54.6c-.142-.561-.6-2.114-.7-2.53a4.639,4.639,0,0,0-.607-1.3,3.525,3.525,0,0,1-.456-.939,4.947,4.947,0,0,0-.531-1.219,2.532,2.532,0,0,1-.43-1.134,9.3,9.3,0,0,0-.273-2.015,10.076,10.076,0,0,1-.239-1.5c-.017-.283-.052-.55-.087-.813a4.8,4.8,0,0,1-.055-1.226c0-.027.006-.052.01-.078a3.513,3.513,0,0,1,.317-.895,4.926,4.926,0,0,0,.381-1.037A2.073,2.073,0,0,0,119.9,39a.707.707,0,0,1,.108-.23c.349-.342,1.748-.355,2.275-.36.423,0,.858-.044,1.294-.085.278-.027.549-.052.812-.066l.654.2a8.062,8.062,0,0,0,2.661.12l.331-.02a5.006,5.006,0,0,0,1.307-.29,3.9,3.9,0,0,1,.922-.22c.294-.018.588-.017.878-.014a8.4,8.4,0,0,0,1.695-.111,5.3,5.3,0,0,1,.9-.07l.28-.009a2.925,2.925,0,0,0,.632-.1,1.6,1.6,0,0,1,.3-.058l.075-.006v19.89a23.432,23.432,0,0,1-5.9,6.311Zm5.9-29.189a1.356,1.356,0,0,0-.41-.334,2.8,2.8,0,0,0-1.063-.314,1.6,1.6,0,0,0-.837.246.783.783,0,0,1-.13.068c-.1.033-.205.058-.315.085a4.944,4.944,0,0,0-.532.151,6.186,6.186,0,0,0-.615.273,2.671,2.671,0,0,1-.65.259,10.352,10.352,0,0,1-2.469.042c-.45-.026-.894-.051-1.322-.051h-.007c.2-.077.406-.155.609-.238.249-.1.5-.206.785-.307a6.767,6.767,0,0,0,1.878-1.138l.365-.278a2.636,2.636,0,0,1,.925-.367,3.62,3.62,0,0,0,1.3-.546,2.8,2.8,0,0,0,.345-.314.621.621,0,0,1,.234-.187,5.432,5.432,0,0,1,.809-.212l.275-.06c.287.393.559.8.821,1.207V34.7Zm-9.685,2.268a10.321,10.321,0,0,0-1.878.064c-.4.037-.8.076-1.251.08-.335,0-.68.013-1.018.038a.208.208,0,0,1,.024-.02,2.632,2.632,0,0,1,.925-.191,5.313,5.313,0,0,0,.889-.138,2.573,2.573,0,0,0,.525-.21,5.285,5.285,0,0,0,1.5.019,8.477,8.477,0,0,1,1.624-.182c.4,0,.823.026,1.246.05a11.458,11.458,0,0,0,2.788-.063,3.8,3.8,0,0,0,.983-.369,4.761,4.761,0,0,1,.483-.218,3.759,3.759,0,0,1,.395-.109c.146-.036.289-.072.416-.114a1.868,1.868,0,0,0,.379-.18.665.665,0,0,1,.135-.068,1.779,1.779,0,0,1,.445.132,1.451,1.451,0,0,0,.125.352,1.808,1.808,0,0,0,.195.31l-.478.406-.086,0a6.323,6.323,0,0,0-1.122.1,6.822,6.822,0,0,1-1.431.084c-.322,0-.642,0-.966.017a4.982,4.982,0,0,0-1.243.28,3.882,3.882,0,0,1-.976.229l-.342.021a14.786,14.786,0,0,1-1.523-.066Zm-8.621,23.89a2.434,2.434,0,0,1,.127.566,6.367,6.367,0,0,1-.067,1.1c-.031.263-.061.528-.075.809a11.236,11.236,0,0,0,.32,3.449l.075.285.265.133.044.02a4.551,4.551,0,0,0,1.07.868l-.13,0a12.2,12.2,0,0,1-1.673-.016c-.09-.011-.138-.024-.152-.024h0a1.243,1.243,0,0,1-.055-.371,2.511,2.511,0,0,1,.1-.633,2.689,2.689,0,0,0,.085-1.3,3.939,3.939,0,0,1-.066-1.035,4.606,4.606,0,0,0-.148-1.514,6.023,6.023,0,0,0-.351-.829,2.975,2.975,0,0,1-.367-1.027,15.085,15.085,0,0,1,.192-2.272,14.75,14.75,0,0,0,.2-2.728c-.02-.445,0-1.4.03-2.408.016-.6.027-1.107.034-1.56a6.33,6.33,0,0,0,.509.948,8.153,8.153,0,0,0,.744.9c.116.127.23.252.337.377-.068.829-.112,1.409-.163,2.122a4.137,4.137,0,0,1-.577,1.6,3.283,3.283,0,0,0-.483,1.536,3.177,3.177,0,0,0,.18,1Zm-11.581,2.92c-.108.269-.287.608-.445.908-.09.169-.176.331-.246.475-.023.048-.067.137-.107.206l-.017-.009a.725.725,0,0,1-.081-.07,1.641,1.641,0,0,0-.447-.311,3.207,3.207,0,0,0-.45-.154c.089-.064.178-.126.246-.172a4.775,4.775,0,0,0,.457-.342,3.553,3.553,0,0,0,1.184-2.464,10.259,10.259,0,0,1,.715-3.1,5.046,5.046,0,0,1,.97-1.317,7.536,7.536,0,0,0,.988-1.255c.114-.193.2-.382.289-.566.131-.28.747-1.844.932-2.227.308-.635,1.057-2.187,1.152-2.519a6.767,6.767,0,0,1,.607-1.407V52.7a7.094,7.094,0,0,0,.051,1,12.987,12.987,0,0,1-.754,1.1c-.3.378-.626.726-.976,1.1-.22.233-.44.466-.651.705a3.97,3.97,0,0,0-.85,1.869,2.975,2.975,0,0,1-.435,1.137,17.578,17.578,0,0,0-1.559,2.674,7.493,7.493,0,0,0-.374.939c-.06.177-.123.36-.2.552Zm26.047-33.056a.779.779,0,0,1,.093-.1,3.568,3.568,0,0,1,.634-.409,4,4,0,0,0,.754-.5,6.355,6.355,0,0,1,.52.655,4.3,4.3,0,0,0-.543.168,1.878,1.878,0,0,0-.693.493,1.5,1.5,0,0,1-.186.175,2.55,2.55,0,0,1-.858.333,3.8,3.8,0,0,0-1.371.581c-.13.1-.256.2-.383.293a5.686,5.686,0,0,1-1.52.943c-.3.107-.573.218-.837.325a7.687,7.687,0,0,1-1.673.534,3.336,3.336,0,0,0-1.559.806c-.109.087-.21.16-.314.233-.17-.014-.338-.025-.5-.025h-.012a2.518,2.518,0,0,1-.875-.212,6.507,6.507,0,0,0-.652-.21,4.06,4.06,0,0,0-.557-.092,4.167,4.167,0,0,0,1.493-.24,5.583,5.583,0,0,1,1.034-.257,5.139,5.139,0,0,0,1.576-.473,10.661,10.661,0,0,0,.922-.585,5.356,5.356,0,0,1,1.387-.764c.292-.1.633-.182.992-.275a8.737,8.737,0,0,0,2.76-1.041,1.9,1.9,0,0,0,.367-.354Zm-22.645,4.1a6.457,6.457,0,0,0-1.486-.462c-.192-.041-.384-.083-.573-.132-.408-.108-.818-.2-1.229-.291a13.441,13.441,0,0,1-2.479-.719,6.638,6.638,0,0,1-1.044-.621,7.735,7.735,0,0,0-1.307-.763,2.828,2.828,0,0,1-.427-.233c.033.017.066.033.1.049a3.561,3.561,0,0,0,1.373.249,3.377,3.377,0,0,1,.775.088,9.723,9.723,0,0,1,1.85.856,10.875,10.875,0,0,0,2.108.965,24.744,24.744,0,0,0,2.558.574c.5.093.977.183,1.447.289h-.043c-.537.043-1.078.1-1.623.15Zm-.277,1.335c.034.025.065.049.1.074.053.043.11.087.183.139a3.126,3.126,0,0,0,.835.418c.082.03.166.062.259.1a.916.916,0,0,1,.424.4,10.138,10.138,0,0,1-2.153-.376,6.255,6.255,0,0,0-1.947-.088,2.852,2.852,0,0,0-.839.261,1.51,1.51,0,0,1-.477.156,6.455,6.455,0,0,1-2.575-.411,4.51,4.51,0,0,0-1.383-.259c.326-.027.643-.075.952-.121a6.7,6.7,0,0,1,1.54-.117,28.844,28.844,0,0,0,5.085-.176Zm3.9,11.975a3.747,3.747,0,0,1,.039-1.115c.13-.44.3-.869.462-1.283A6.665,6.665,0,0,0,113.311,42a8.863,8.863,0,0,0-.433-1.524,8.834,8.834,0,0,1-.351-1.162,4.044,4.044,0,0,0-.592-1.383c-.076-.127-.155-.259-.236-.407l-.239-.445-.047.012a2.739,2.739,0,0,0-.822-1.136,11.294,11.294,0,0,1,1.674.013c.152.015.322.037.5.061a6.654,6.654,0,0,0,2.015.044c.126.008.247.011.363.01v.041c.1,0,.191-.009.288-.011.011,0,.022,0,.032,0s.041-.006.062-.007c.5-.016.986-.055,1.45-.1a12.709,12.709,0,0,1,2.3-.081c.186.016.375.024.566.032.249.011.483.027.706.055a2.117,2.117,0,0,0-.476.4,1.131,1.131,0,0,1-.158.152.988.988,0,0,1-.186.048,1.8,1.8,0,0,0-.569.189,1.555,1.555,0,0,0-.638,2.122c.008.023.014.045.022.069-.015.06-.033.123-.046.18-.021.088-.04.17-.062.244a16.922,16.922,0,0,0-.5,2.251c0,.013-.006.024-.007.037-.007.051-.007.1-.012.147a6.093,6.093,0,0,0,.051,1.976,11.9,11.9,0,0,1,.051,4.026l-.058.594c-.094.976-.1,1.974-.113,2.939,0,.435-.016.865-.028,1.3-.022-.03-.049-.059-.07-.089a12.412,12.412,0,0,1-1.214-3.128,4.748,4.748,0,0,0-.437-1.223.776.776,0,0,0-.639-.35l-.065,0c-.535.047-.771.562-1.045,1.159a3.928,3.928,0,0,1-.2.411,6.9,6.9,0,0,1-1.121,1.378,7.888,7.888,0,0,0-.845.966V48.7c0-.181-.01-.375-.02-.574Zm2.115,10.286a1.172,1.172,0,0,1,.412-.725c.026-.028.053-.058.08-.088-.037.429-.1.859-.155,1.3-.045.339-.092.683-.129,1.034a4.488,4.488,0,0,1-.207-1.523Zm.348,3.966c0-.013,0-.027.008-.04.084.21.182.412.274.6a4.92,4.92,0,0,1,.279.645,3.424,3.424,0,0,1,.09,1.1,6.121,6.121,0,0,0,.04,1.046.012.012,0,0,1,0,0c-.072-.188-.153-.38-.236-.578a4.906,4.906,0,0,1-.555-2.134,5.418,5.418,0,0,1,.1-.641Zm-2.618-2.9a10.807,10.807,0,0,0,.391-2.36c.071-.9-.064-3.145-.064-3.145s-.006-.023-.011-.034a10.413,10.413,0,0,1,1.6-2.151c.078-.074.149-.151.223-.225-.143.8-.215,1.482-.215,1.5a10.259,10.259,0,0,0,.105,1.2,7.04,7.04,0,0,1,.08,1.993,1.807,1.807,0,0,1-.395.555,2.388,2.388,0,0,0-.745,1.477,6.341,6.341,0,0,0,.32,2.264c.043.158.085.314.123.468a2.775,2.775,0,0,1-.078,1.109,6.737,6.737,0,0,0-.121.793,5.946,5.946,0,0,0,.653,2.736c.077.184.153.365.22.539a2.321,2.321,0,0,1,.1.544,3.13,3.13,0,0,0,.244,1.04,1.221,1.221,0,0,0,.06.111c-.329-.026-.7-.047-1.039-.065,0-.016.006-.031.011-.047.026-.116.054-.241.082-.409a2.942,2.942,0,0,0-.1-1.732c-.06-.151-.127-.3-.2-.45a4.748,4.748,0,0,1-.322-.845,7.321,7.321,0,0,0-.463-1.279c-.081-.182-.164-.371-.246-.583a7.181,7.181,0,0,1-.223-3.008ZM130.419,29.63a2.028,2.028,0,0,0-.243.254.68.68,0,0,1-.122.127,7.989,7.989,0,0,1-2.331.843c-.385.1-.753.194-1.067.3a6.513,6.513,0,0,0-1.724.929,9.186,9.186,0,0,1-.81.517,4.157,4.157,0,0,1-1.187.334,6.6,6.6,0,0,0-1.281.33,3.7,3.7,0,0,1-1.246.152,5.837,5.837,0,0,0-1.415.143,3.332,3.332,0,0,0-.8.364,3.335,3.335,0,0,1-.383.2,7.106,7.106,0,0,0,.949-3.038,3.36,3.36,0,0,0-.484-1.721h12.52a3.379,3.379,0,0,0-.373.273Zm-12.965,1.447a5.656,5.656,0,0,1-1.789,3.662q-.174.024-.347.033a5.646,5.646,0,0,1-2.061-3.695,2.1,2.1,0,0,1,4.2,0Zm-4.276,3.3c-.183-.077-.376-.176-.522-.253a4.863,4.863,0,0,0-.685-.321,21.171,21.171,0,0,0-2.981-.712,23.222,23.222,0,0,1-2.423-.541,9.858,9.858,0,0,1-1.855-.859,10.84,10.84,0,0,0-2.1-.962,4.407,4.407,0,0,0-1.093-.142,2.55,2.55,0,0,1-.885-.131,2.211,2.211,0,0,1-.692-.61,4.888,4.888,0,0,0-.483-.494h12.98a3.361,3.361,0,0,0-.484,1.721,6.744,6.744,0,0,0,1.226,3.3ZM98.06,30.2c.351-.071.487.033.9.505a5.965,5.965,0,0,0,.435.462,3.984,3.984,0,0,0-1.406-.71c-.082-.02-.165-.038-.249-.055l-.082-.017a.724.724,0,0,1,.4-.185Zm-1.406,1.159a1.941,1.941,0,0,0,.821.32c.065.013.132.027.2.044a3.154,3.154,0,0,1,1.115.616,5.5,5.5,0,0,0,1.116.687,6.741,6.741,0,0,1,1.089.643,7.8,7.8,0,0,0,1.253.737,12.2,12.2,0,0,0,2.132.663c-.369,0-.74-.013-1.1-.043a8.063,8.063,0,0,0-1.839.127,9.426,9.426,0,0,1-1.134.126,3.792,3.792,0,0,1-1.642-.407c-.23-.094-.466-.189-.719-.277a6.223,6.223,0,0,0-.665-.154,6.405,6.405,0,0,1-.95-.232l-.341-.483V32.32q.323-.488.669-.959Zm3.152,5.2-.138,0a6.114,6.114,0,0,1-1.722-.111,5.118,5.118,0,0,0-1.088-.145.372.372,0,0,1-.022-.088c0-.015,0-.03-.006-.044l.059-.311c.005-.063.009-.118.011-.168l.126.024a4.942,4.942,0,0,1,.492.108c.23.079.444.166.652.251a5.976,5.976,0,0,0,1.637.48Zm-3.82,1.01.582.03a4.921,4.921,0,0,1,1.042.114,7.285,7.285,0,0,0,2.092.155,5.11,5.11,0,0,1,1.908.176,7.7,7.7,0,0,0,3.118.489,2.638,2.638,0,0,0,.915-.264,1.667,1.667,0,0,1,.464-.158,4.931,4.931,0,0,1,1.477.056,9.174,9.174,0,0,0,2.995.393c.054.135.111.271.179.406a17.645,17.645,0,0,1,1.117,3.466,3.213,3.213,0,0,1-.287,1.673c-.1.3-.2.588-.266.872-.043.178-.081.357-.121.537a6.032,6.032,0,0,1-.763,2.176,9.642,9.642,0,0,0-1.419,2.812c-.117.411-.633,1.351-.917,2.163s-.944,2.065-1.095,2.389c-.07.148-.139.3-.231.456a6.526,6.526,0,0,1-.828,1.038,6.148,6.148,0,0,0-1.2,1.673,11.566,11.566,0,0,0-.817,3.491,2.282,2.282,0,0,1-.763,1.625,3.336,3.336,0,0,1-.321.234,4.542,4.542,0,0,0-.764.615,23.444,23.444,0,0,1-6.094-6.251V37.574Zm9.623,28.161c.066-.135.145-.285.23-.443.172-.328.369-.7.5-1.032.085-.214.155-.416.223-.612a6.272,6.272,0,0,1,.309-.783,16.553,16.553,0,0,1,1.437-2.477,4.128,4.128,0,0,0,.658-1.61,2.8,2.8,0,0,1,.56-1.311c.2-.229.41-.45.62-.671.355-.376.723-.764,1.055-1.19.084-.108.156-.22.234-.329a26.855,26.855,0,0,1-.595,4.421,5.968,5.968,0,0,0,.171,3.254c.089.232.181.439.269.638a6.061,6.061,0,0,1,.389,1.059,5.892,5.892,0,0,0,.4,1.076c.06.133.121.264.174.4a1.8,1.8,0,0,1,.013,1.065c-.018.108-.041.21-.063.3a2.414,2.414,0,0,0-.076.661,23.074,23.074,0,0,1-6.733-2.029,3.516,3.516,0,0,0,.221-.389Zm15.958,1.812c-.033-.055-.066-.108-.108-.165l-.072-.1-.1-.065a1.951,1.951,0,0,0-1.5-.209,1.223,1.223,0,0,1-.51.024,2.878,2.878,0,0,1-.953-.747l-.123-.185A10.271,10.271,0,0,1,118,63.4c.012-.249.04-.484.067-.718a7.521,7.521,0,0,0,.074-1.323,3.494,3.494,0,0,0-.181-.878,2.1,2.1,0,0,1-.124-.606,3.266,3.266,0,0,1,.368-1.294,6.722,6.722,0,0,0,.455-2.466,16.416,16.416,0,0,1,.887,2.644,6.793,6.793,0,0,0,1.357,2.388,3.535,3.535,0,0,1,.477.917,6.3,6.3,0,0,0,.4.852,4.676,4.676,0,0,0,1.064,1.174,3.029,3.029,0,0,1,.889,1.03,3.98,3.98,0,0,1,.19.671,5.219,5.219,0,0,0,.253.871,23.136,23.136,0,0,1-2.607.889Zm5.938-2.575c-.136.056-.271.113-.407.165a7.9,7.9,0,0,0-1.077.484,3.069,3.069,0,0,1-.715.334c-.043-.141-.077-.3-.114-.455a4.96,4.96,0,0,0-.269-.906,4.171,4.171,0,0,0-1.23-1.492,3.5,3.5,0,0,1-.79-.844,5.2,5.2,0,0,1-.314-.683,4.72,4.72,0,0,0-.657-1.23,5.714,5.714,0,0,1-1.125-1.915,13.87,13.87,0,0,0-1.616-4.087c-.032-.049-.069-.091-.1-.138,0-.121.006-.244.007-.365,0-.164,0-.329.012-.494.031-.642.038-1.3.044-1.951.006-.68.024-1.371.06-2.053a3.444,3.444,0,0,1,.353.8,4.641,4.641,0,0,0,.609,1.309,10.277,10.277,0,0,1,1.067,2.339c.2.849.065,2.006.2,2.53l.11.432a6.675,6.675,0,0,0,1.18,2.174c.16.223.32.445.468.674a4.6,4.6,0,0,1,.626,1.85c.046.254.1.52.16.807a3.93,3.93,0,0,0,.74,1.641c.049.06.1.128.152.2a1.965,1.965,0,0,0,1.1.894,2.752,2.752,0,0,0,1.176-.147,2.8,2.8,0,0,1,.464-.105c.083-.009.191-.018.292-.024-.135.086-.268.176-.406.26Zm7.514-35.617v1.032c-.265-.351-.541-.695-.824-1.032ZM115.385,21.87a23.169,23.169,0,0,1,15.768,6.181H116.963V28.1a3.27,3.27,0,0,0-3.225.007v-.052H99.617a23.166,23.166,0,0,1,15.768-6.182Zm-19.4,7.485h.591c-.2.241-.4.487-.591.735ZM92.128,45.129a23.1,23.1,0,0,1,2.555-10.578V55.707a23.1,23.1,0,0,1-2.555-10.578Zm3.858,23.258v-8.22a24.653,24.653,0,0,0,11.521,8.22Zm39.032,0H123.263a24.456,24.456,0,0,0,4.844-2.254c.039-.016.072-.028.113-.046a2.256,2.256,0,0,0,.855-.574,24.761,24.761,0,0,0,5.943-5.642Z" transform="translate(-1430.292 -201.263)"/>
  </g>
</svg>
