<svg xmlns="http://www.w3.org/2000/svg" width="48.786" height="48.873" viewBox="0 0 48.786 48.873">
  <g id="_6" data-name="6" transform="translate(0 -952.4)">
    <path id="Path_148" data-name="Path 148" d="M24.44,952.4a5.736,5.736,0,0,0-3.385,1.4,11.472,11.472,0,0,1-2.395,1.4,10.4,10.4,0,0,1-2.807,0,6.224,6.224,0,0,0-3.633.5,6.258,6.258,0,0,0-2.229,2.89,9.555,9.555,0,0,1-1.4,2.394,16.743,16.743,0,0,1-2.395,1.4,5.872,5.872,0,0,0-2.9,2.236,6.222,6.222,0,0,0-.5,3.633,9.71,9.71,0,0,1,0,2.725,9.708,9.708,0,0,1-1.4,2.395A6.221,6.221,0,0,0,0,976.841a5.737,5.737,0,0,0,1.4,3.385,11.477,11.477,0,0,1,1.4,2.394,10.4,10.4,0,0,1,0,2.807,6.222,6.222,0,0,0,.5,3.633,5.872,5.872,0,0,0,2.89,2.229,9.555,9.555,0,0,1,2.395,1.4,11.412,11.412,0,0,1,1.4,2.394,5.872,5.872,0,0,0,2.229,2.89,6.223,6.223,0,0,0,3.633.5,10.4,10.4,0,0,1,2.807,0,11.471,11.471,0,0,1,2.4,1.4,6.214,6.214,0,0,0,3.385,1.4,5.737,5.737,0,0,0,3.385-1.4,11.472,11.472,0,0,1,2.395-1.4,9.845,9.845,0,0,1,2.725,0,6.224,6.224,0,0,0,3.633-.5,5.873,5.873,0,0,0,2.229-2.89,9.556,9.556,0,0,1,1.4-2.394,11.411,11.411,0,0,1,2.395-1.4,5.872,5.872,0,0,0,2.89-2.229,6.222,6.222,0,0,0,.5-3.633,10.4,10.4,0,0,1,0-2.807,11.473,11.473,0,0,1,1.4-2.394,6.215,6.215,0,0,0,1.4-3.385,5.738,5.738,0,0,0-1.4-3.385,11.475,11.475,0,0,1-1.4-2.4,9.852,9.852,0,0,1,0-2.725,6.308,6.308,0,0,0-.5-3.633,6.258,6.258,0,0,0-2.89-2.229,9.552,9.552,0,0,1-2.395-1.4,16.748,16.748,0,0,1-1.4-2.394,5.873,5.873,0,0,0-2.229-2.89,6.221,6.221,0,0,0-3.633-.5,9.713,9.713,0,0,1-2.725,0,9.708,9.708,0,0,1-2.4-1.4,4.947,4.947,0,0,0-3.379-1.49Zm0,2.229a5.165,5.165,0,0,1,2.147.991,10.926,10.926,0,0,0,3.055,1.734,9.873,9.873,0,0,0,3.468.083,4.768,4.768,0,0,1,2.395.248,5.279,5.279,0,0,1,1.4,1.982,9.306,9.306,0,0,0,1.817,2.972,10.674,10.674,0,0,0,3.055,1.817,4.821,4.821,0,0,1,1.9,1.4,4.769,4.769,0,0,1,.248,2.395,9.839,9.839,0,0,0,.083,3.468,9.214,9.214,0,0,0,1.734,3.055,2.821,2.821,0,0,1,0,4.294,10.927,10.927,0,0,0-1.734,3.055,10.344,10.344,0,0,0-.083,3.55,4.769,4.769,0,0,1-.248,2.395,5.572,5.572,0,0,1-1.9,1.4,10.669,10.669,0,0,0-3.055,1.817,11.525,11.525,0,0,0-1.817,2.972,5.28,5.28,0,0,1-1.4,1.982,5.97,5.97,0,0,1-2.4.248,9.841,9.841,0,0,0-3.468.083,9.215,9.215,0,0,0-3.055,1.734,5.164,5.164,0,0,1-2.147.991,5.165,5.165,0,0,1-2.147-.991,10.925,10.925,0,0,0-3.055-1.734,10.344,10.344,0,0,0-3.55-.083,4.769,4.769,0,0,1-2.4-.248,5.281,5.281,0,0,1-1.4-1.982,9.307,9.307,0,0,0-1.817-2.972A11.526,11.526,0,0,0,7.1,989.474a5.279,5.279,0,0,1-1.982-1.4,4.769,4.769,0,0,1-.248-2.4,10.344,10.344,0,0,0-.083-3.55,9.213,9.213,0,0,0-1.734-3.055,5.657,5.657,0,0,1-.991-2.147,5.165,5.165,0,0,1,.991-2.147,10.926,10.926,0,0,0,1.734-3.055,9.874,9.874,0,0,0,.083-3.468,4.769,4.769,0,0,1,.248-2.4,5.28,5.28,0,0,1,1.982-1.4,9.309,9.309,0,0,0,2.972-1.817,11.525,11.525,0,0,0,1.817-2.972,5.279,5.279,0,0,1,1.4-1.982,5.971,5.971,0,0,1,2.395-.248,10.343,10.343,0,0,0,3.55-.083,9.215,9.215,0,0,0,3.055-1.734,4.267,4.267,0,0,1,2.147-.991Zm-6.688,9.991a5.532,5.532,0,1,0,5.532,5.532A5.532,5.532,0,0,0,17.752,964.62Zm15.44,2.147a1.019,1.019,0,0,0-.661.33L14.78,984.85a1.109,1.109,0,0,0,1.569,1.569h0L34.1,968.666a1.152,1.152,0,0,0,.083-1.569,1.441,1.441,0,0,0-.99-.33Zm-15.44.083a3.3,3.3,0,1,1-3.3,3.3,3.26,3.26,0,0,1,3.3-3.3Zm13.376,11.064a5.532,5.532,0,1,0,5.532,5.532,5.532,5.532,0,0,0-5.532-5.532Zm0,2.229a3.3,3.3,0,1,1-3.3,3.3,3.26,3.26,0,0,1,3.3-3.3Z"/>
  </g>
</svg>
