<svg xmlns="http://www.w3.org/2000/svg" width="59.56" height="47.915" viewBox="0 0 59.56 47.915">
  <g id="work_building_repair_construction_tool_tool_hand_tool_electrical_tool_-24_icon-icons.com_60447" transform="translate(0.5 0.5)">
    <path id="Контур_101" data-name="Контур 101" d="M59.424,15.905H57.4a7.65,7.65,0,0,1-7.6-7.6A7.65,7.65,0,0,1,57.4.7H84.686V15.857h-10.1v4.812H71.55a1.767,1.767,0,0,0-1.78,1.732V33.324h3.272l7.7,5.052v6.255a2.958,2.958,0,0,1-2.983,2.983L77.709,48v-.385h-18a3,3,0,0,1-2.983-2.983V37.414l2.55-3.513.1-.1v-17.9Zm12.751,3.609h1.2V15.905h-1.2ZM57.98,45.017h.1a1.88,1.88,0,0,0,.481.914,1.747,1.747,0,0,0,1.251.529h18a1.767,1.767,0,0,0,1.78-1.732V39.05l-.144-.1L72.993,34.72l-.241-.144-.192.241-3.705,4.042H58.028v6.159Zm.626-7.988-.433.577h10.1l.1-.1,2.117-2.31.577-.674h-2.5V22.5a3.032,3.032,0,0,1,2.165-2.887l.241-.1V15.857H68.566v-1.2H83.483V12.489h-4.09v-1.2h4.09V8.88h-4.09v-1.2h4.09V5.271h-4.09V4.116h4.09V1.9H57.4a6.352,6.352,0,1,0,0,12.7h3.272V34.094Z" transform="translate(-49.8 -0.7)" stroke="#000" stroke-width="1"/>
    <path id="Контур_102" data-name="Контур 102" d="M7.667,4.8h.385A5.337,5.337,0,0,1,12.96,9.467l.048.337h10.1v1.2h-10.1l-.048.337a5.25,5.25,0,0,1-4.908,4.667L1.7,16.06V4.8Zm0,10.153.385-.048a4.323,4.323,0,0,0,3.705-4.138v-.577A4.166,4.166,0,0,0,8.052,6.051L7.667,6ZM2.855,14.9H6.464V5.955H2.855Z" transform="translate(34.918 -2.827)" stroke="#000" stroke-width="1"/>
    <g id="Сгруппировать_80" data-name="Сгруппировать 80" transform="translate(6.737 2.935)">
      <rect id="Прямоугольник_35" data-name="Прямоугольник 35" width="4.09" height="1.203" transform="translate(0)" stroke="#000" stroke-width="1"/>
    </g>
    <g id="Сгруппировать_81" data-name="Сгруппировать 81" transform="translate(6.737 5.822)">
      <rect id="Прямоугольник_36" data-name="Прямоугольник 36" width="4.09" height="1.203" transform="translate(0)" stroke="#000" stroke-width="1"/>
    </g>
    <g id="Сгруппировать_82" data-name="Сгруппировать 82" transform="translate(47.204 6.737)">
      <path id="Контур_103" data-name="Контур 103" d="M.6,15.566a.863.863,0,0,0,.866.866H11.09a.866.866,0,1,0,0-1.732H1.466A.862.862,0,0,0,.6,15.566Z" transform="translate(-0.6 -14.7)" stroke="#000" stroke-width="1"/>
    </g>
  </g>
</svg>
