<svg id="advIcon4" xmlns="http://www.w3.org/2000/svg" width="49" height="49" viewBox="0 0 49 49">
  <rect id="Rectangle_131" data-name="Rectangle 131" width="49" height="49" fill="none"/>
  <path id="Path_157" data-name="Path 157" d="M12.757,44.574a.571.571,0,0,1-.568.586H12.16a1.758,1.758,0,0,1-1.754-1.76V41.768a.584.584,0,0,1,1.168,0V43.4a.585.585,0,0,0,.586.586A.6.6,0,0,1,12.757,44.574Zm-1.765-5.691a.584.584,0,0,0,.582-.586V34.824a.584.584,0,1,0-1.168,0V38.3a.587.587,0,0,0,.586.583Zm0-6.944a.584.584,0,0,0,.582-.586V27.881a.584.584,0,1,0-1.168,0v3.473a.587.587,0,0,0,.586.586ZM36.7,22.427h3.473a.584.584,0,0,0,0-1.167H36.7a.584.584,0,1,0,0,1.167Zm-6.944,0h3.473a.584.584,0,0,0,0-1.167H29.755a.584.584,0,1,0,0,1.167Zm-3.47-1.167H22.811a.584.584,0,0,0,0,1.167h3.473a.584.584,0,1,0,0-1.167ZM36.5,45.16h3.471a.585.585,0,0,0,0-1.169H36.494a.585.585,0,1,0,0,1.169Zm-7.53-.586a.584.584,0,0,0,.584.586H33.02a.585.585,0,0,0,0-1.169H29.548a.584.584,0,0,0-.584.583ZM12.4,21.26h-.24a1.756,1.756,0,0,0-1.753,1.751v1.4a.584.584,0,0,0,1.168,0v-1.4a.584.584,0,0,1,.586-.584H12.4a.584.584,0,1,0,0-1.167ZM26.08,43.991H22.6a.585.585,0,0,0,0,1.169h3.473a.585.585,0,1,0,0-1.169Zm-6.944,0H15.659a.585.585,0,0,0,0,1.169h3.473a.585.585,0,0,0,0-1.169Zm.2-22.731H15.867a.584.584,0,0,0,0,1.167H19.34a.584.584,0,1,0,0-1.167Zm29.574,7.556V37.6a1.166,1.166,0,0,1-1.167,1.168H45.993v4.28a5.846,5.846,0,0,1-5.839,5.837H11.984a5.849,5.849,0,0,1-5.842-5.837V23.372a5.848,5.848,0,0,1,5.842-5.84H19.9c.787-1.149,1.485-2.4,2.2-3.694,2-3.615,4.061-7.355,8.454-8.808a.583.583,0,0,1,.6.141L40.3,14.329a.583.583,0,0,1,.156.548.592.592,0,0,1-.385.419,9.469,9.469,0,0,0-3.656,2.236h3.739a5.847,5.847,0,0,1,5.84,5.84v4.275h1.753A1.168,1.168,0,0,1,48.914,28.816ZM37.166,12.849a11.183,11.183,0,0,0-5.436,4.683h3.083a11.122,11.122,0,0,1,4.02-3.015Zm-4.01-4.011a10.785,10.785,0,0,0-5.1,4.225,4.091,4.091,0,0,1,2.008,1.129,5.2,5.2,0,0,1,1.188,1.979,12.021,12.021,0,0,1,5-4.233Zm-3.917,6.179a2.753,2.753,0,0,0-1.965-.874,3.025,3.025,0,0,0-2.617,1.792,6.346,6.346,0,0,0-.575,1.6h6.3a4.39,4.39,0,0,0-1.143-2.518Zm-7.983,2.515h1.632a7.612,7.612,0,0,1,.742-2.146,4.332,4.332,0,0,1,3.036-2.357,12.766,12.766,0,0,1,5.6-5.081L30.578,6.256c-3.728,1.385-5.542,4.672-7.46,8.146-.588,1.063-1.2,2.111-1.862,3.13Zm22.4,21.237H32.025A1.166,1.166,0,0,1,30.859,37.6V28.816a1.169,1.169,0,0,1,1.165-1.169H43.658V23.372a3.508,3.508,0,0,0-3.5-3.5H11.984a3.507,3.507,0,0,0-3.5,3.5V43.049a3.5,3.5,0,0,0,3.5,3.5h28.17a3.506,3.506,0,0,0,3.5-3.5v-4.28Zm2.918-8.786H33.2v6.451H46.58Zm-12.3,3.226a2.365,2.365,0,1,1,2.364,2.364,2.365,2.365,0,0,1-2.364-2.364Zm1.167,0a1.2,1.2,0,1,0,1.2-1.2,1.2,1.2,0,0,0-1.2,1.2Z" transform="translate(-3.147 -2.562)"/>
</svg>
